<svg width="64" height="65" viewBox="0 0 64 65" fill="none" xmlns="http://www.w3.org/2000/svg">
<path d="M53.2187 36.3062C49.0361 56.1429 42.4512 60 29.1687 60C15.8862 60 10.8697 50.3049 10.8697 36.3062C5.64138 10.9593 11.7037 6 24.9862 6C44.3307 6 57.4014 16.4695 53.2187 36.3062Z" fill="white" fill-opacity="0.5"/>
<path d="M15.2027 43.1842C6.31397 26.8856 8.60193 20.2854 17.8448 12.3895C27.0877 4.49363 36.3454 8.2622 44.6721 18.0094C63.3873 32.5503 62.1186 39.6072 52.8757 47.5031C39.4145 59.0026 24.0915 59.4828 15.2027 43.1842Z" fill="white" fill-opacity="0.5"/>
<path d="M59.5716 31.6935C57.1521 50.4106 49.9224 54.9785 34.3673 57.1153C18.8122 59.2522 11.726 51.2401 9.97672 38.5064C0.686513 16.291 7.16635 10.8045 22.7214 8.66771C45.3758 5.55566 61.9911 12.9764 59.5716 31.6935Z" fill="white" fill-opacity="0.5"/>
<path d="M51 32.449C51 36.4735 49.4101 40.0695 46.9139 42.4656C48.3342 40.0579 49.1636 36.4604 49.1636 31.0649C49.1636 27.7002 48.1413 24.5711 46.3933 21.9749C49.1839 24.3543 51 28.1533 51 32.449ZM19.6067 21.9741C16.8161 24.355 15 28.1533 15 32.4483C15 36.5655 16.6653 40.2326 19.2616 42.6266C17.742 40.2196 16.8364 36.58 16.8364 31.0642C16.8364 27.6988 17.8587 24.5696 19.6067 21.9741ZM44.3858 20.6032C41.5626 17.4958 37.5135 15.5347 32.9989 15.5347C28.4843 15.5347 24.4352 17.4958 21.612 20.6032C19.1035 23.3647 17.56 27.0281 17.56 31.0635C17.5614 38.431 19.1282 42.2996 21.6874 44.3347C22.1529 44.7051 22.6488 45.0183 23.1766 45.2764C22.9714 45.1097 22.7749 44.9328 22.5864 44.7472C21.04 43.2298 20.0707 41.1323 20.0525 38.8225C19.9561 36.4379 19.9112 34.8393 19.8582 32.9884C19.8307 32.0118 19.801 30.97 19.7604 29.6903C19.7604 24.8698 24.7788 21.268 29.2659 21.268H32.2572H33.7413H36.7327C42.1731 21.268 46.2382 25.7144 46.2382 29.7135C46.1983 30.9678 46.1686 32.0082 46.141 32.9833C46.0881 34.8357 46.0432 36.4358 45.9475 38.7993C45.9286 41.1229 44.9571 43.2283 43.407 44.7494C43.2033 44.9495 42.9887 45.1372 42.7661 45.3163C43.3469 45.0379 43.8928 44.6993 44.3989 44.2861C46.9074 42.2372 48.4378 38.3701 48.4378 31.0642C48.4378 27.0289 46.8943 23.364 44.3858 20.6032ZM41.5206 45.3112C40.3352 46.0392 38.9454 46.4655 37.4555 46.4655C36.2679 46.4655 35.2776 46.4655 34.3532 46.4655C32.5045 46.4655 30.9203 46.4655 28.5445 46.4655C27.0546 46.4655 25.6641 46.0392 24.4787 45.3112C22.2812 43.962 20.7993 41.5594 20.7768 38.7935C20.6296 35.146 20.6014 33.311 20.4861 29.6903C20.4861 25.4389 25.0159 21.993 29.2666 21.993C30.6724 21.993 31.7468 21.993 32.8024 21.993C32.9337 21.993 33.0663 21.993 33.1976 21.993C34.2532 21.993 35.3269 21.993 36.7334 21.993C40.9848 21.993 45.5139 25.4389 45.5139 29.6903C45.3986 33.311 45.3696 35.146 45.2225 38.7935C45.2 41.5594 43.7181 43.962 41.5206 45.3112ZM29.7023 33.2095C29.7023 32.1684 29.1491 31.2621 28.3248 30.751C27.8811 30.4755 27.3627 30.3095 26.8023 30.3095C25.2008 30.3095 23.9023 31.608 23.9023 33.2095C23.9023 34.811 25.2008 36.1095 26.8023 36.1095C27.4599 36.1095 28.0595 35.8819 28.5459 35.5128C29.2441 34.9836 29.7023 34.1535 29.7023 33.2095ZM42.097 33.2095C42.097 31.608 40.7985 30.3095 39.197 30.3095C38.6365 30.3095 38.1182 30.4755 37.6745 30.751C36.8501 31.2621 36.2969 32.1684 36.2969 33.2095C36.2969 34.1527 36.7552 34.9836 37.4533 35.5128C37.9398 35.8819 38.5394 36.1095 39.197 36.1095C40.7985 36.1095 42.097 34.811 42.097 33.2095Z" fill="#45BEA4"/>
</svg>
